<svg xmlns="http://www.w3.org/2000/svg" xmlns:xlink="http://www.w3.org/1999/xlink" version="1.1" x="0px" y="0px" viewBox="0 0 64 80" style="enable-background:new 0 0 64 64;" xml:space="preserve"><path d="M27.177,23.246c-1.64,0.907-2.997,2.261-3.91,3.897c0.787-0.266,1.631-0.471,2.49-0.63  C26.118,25.28,26.599,24.179,27.177,23.246z"/><path d="M25,32c0-1.165,0.098-2.281,0.27-3.339c-1.254,0.292-2.276,0.676-3.02,1.142C22.091,30.511,22,31.245,22,32  c0,0.358,0.021,0.712,0.058,1.061c0.718,0.502,1.763,0.918,3.069,1.235C25.046,33.554,25,32.788,25,32z"/><path d="M22.697,35.643c0.856,2.179,2.45,3.989,4.48,5.111c-0.737-1.192-1.318-2.659-1.693-4.32  C24.507,36.241,23.559,35.982,22.697,35.643z"/><path d="M27,32c0,0.929,0.072,1.83,0.197,2.691c1.152,0.161,2.436,0.255,3.803,0.288V28.02c-1.302,0.031-2.522,0.115-3.624,0.26  C27.136,29.436,27,30.693,27,32z"/><path d="M31,41.789v-4.802c-1.009-0.023-2.17-0.085-3.373-0.222C28.331,39.286,29.563,41.178,31,41.789z"/><path d="M36.823,40.754c2.03-1.123,3.623-2.932,4.48-5.111c-0.862,0.339-1.81,0.598-2.786,0.791  C38.142,38.095,37.561,39.562,36.823,40.754z"/><path d="M52,59V5c0-0.551-0.449-1-1-1H12v56h39C51.551,60,52,59.551,52,59z M39,8h2v2h-2V8z M39,12h2v2h-2V12z M35,8h2v2h-2V8z   M35,12h2v2h-2V12z M31,8h2v2h-2V8z M31,12h2v2h-2V12z M27,8h2v2h-2V8z M27,12h2v2h-2V12z M23,8h2v2h-2V8z M23,12h2v2h-2V12z M25,53  h-2v-2h2V53z M25,49h-2v-2h2V49z M29,53h-2v-2h2V53z M29,49h-2v-2h2V49z M34,57h-4v-2h4V57z M33,51v2h-2v-2H33z M31,49v-2h2v2H31z   M37,53h-2v-2h2V53z M37,49h-2v-2h2V49z M41,53h-2v-2h2V53z M41,49h-2v-2h2V49z M32,44c-6.617,0-12-5.383-12-12s5.383-12,12-12  s12,5.383,12,12S38.617,44,32,44z"/><path d="M36.823,23.246c0.578,0.935,1.06,2.038,1.422,3.272c0.917,0.172,1.751,0.386,2.497,0.639  C39.829,25.514,38.468,24.155,36.823,23.246z"/><path d="M27.964,26.198c1.086-0.112,2.127-0.165,3.036-0.186v-3.802C29.768,22.734,28.69,24.204,27.964,26.198z"/><path d="M33,41.789c1.437-0.611,2.669-2.503,3.373-5.024c-1.203,0.137-2.364,0.199-3.373,0.222V41.789z"/><path d="M33,22.211v3.809c1.07,0.024,2.085,0.086,3.039,0.185C35.312,24.207,34.233,22.735,33,22.211z"/><path d="M39,32c0,0.788-0.046,1.554-0.127,2.296c1.306-0.317,2.351-0.733,3.069-1.235C41.979,32.712,42,32.358,42,32  c0-0.76-0.093-1.498-0.254-2.21c-0.742-0.461-1.771-0.838-3.016-1.128C38.902,29.719,39,30.836,39,32z"/><path d="M36.624,28.279c-1.104-0.146-2.326-0.23-3.624-0.26v6.96c1.367-0.033,2.651-0.127,3.803-0.288C36.928,33.83,37,32.929,37,32  C37,30.693,36.864,29.437,36.624,28.279z"/><text x="0" y="79" fill="#000000" font-size="5px" font-weight="bold" font-family="'Helvetica Neue', Helvetica, Arial-Unicode, Arial, Sans-serif">Created by dDara</text><text x="0" y="84" fill="#000000" font-size="5px" font-weight="bold" font-family="'Helvetica Neue', Helvetica, Arial-Unicode, Arial, Sans-serif">from the Noun Project</text></svg>